<svg xmlns="http://www.w3.org/2000/svg" xmlns:xlink="http://www.w3.org/1999/xlink" aria-hidden="true" focusable="false" role="img" class="iconify iconify--whh" width="1.01em" height="1em" preserveAspectRatio="xMidYMid meet" viewBox="0 0 960 959" style="transform: rotate(360deg);"><path d="M832 959H128q-53 0-90.5-37.5T0 831V127q0-53 37.5-90T128 0h704q53 0 90.5 37t37.5 90v704q0 53-37.5 90.5T832 959zM224 127q-40 0-68 28.5t-28 68t28 67.5t68 28t68-28t28-67.5t-28-68t-68-28.5zm0 512q-40 0-68 28t-28 68t28 68t68 28t68-28t28-68t-28-68t-68-28zm256-256q-40 0-68 28.5t-28 68t28 67.5t68 28t68-28t28-67.5t-28-68t-68-28.5zm256-256q-40 0-68 28.5t-28 68t28 67.5t68 28t68-28t28-67.5t-28-68t-68-28.5zm0 512q-40 0-68 28t-28 68t28 68t68 28t68-28t28-68t-28-68t-68-28z" fill="currentColor"></path></svg>