<!DOCTYPE svg PUBLIC "-//W3C//DTD SVG 1.1//EN" "http://www.w3.org/Graphics/SVG/1.1/DTD/svg11.dtd">
<!-- Uploaded to: SVG Repo, www.svgrepo.com, Transformed by: SVG Repo Mixer Tools -->
<svg fill="#2a2a2a" height="800px" width="800px" version="1.1" id="Layer_1" xmlns="http://www.w3.org/2000/svg" xmlns:xlink="http://www.w3.org/1999/xlink" viewBox="0 0 512 512" enable-background="new 0 0 512 512" xml:space="preserve" stroke="#2a2a2a">
<g id="SVGRepo_bgCarrier" stroke-width="0"/>
<g id="SVGRepo_tracerCarrier" stroke-linecap="round" stroke-linejoin="round"/>
<g id="SVGRepo_iconCarrier"> <path d="M341.3,28.3v85.3H128c-70.7,0-128,57.3-128,128c0,21.5,5.8,41.4,15.2,59.2L68,263.2c-2.4-6.8-4-13.9-4-21.5 c0-35.4,28.7-64,64-64h213.3V263L512,156.3V135L341.3,28.3z M444,262.8c2.4,6.8,4,13.9,4,21.5c0,35.4-28.6,64-64,64H170.7V263 L0,369.7V391l170.7,106.7v-85.3H384c70.7,0,128-57.3,128-128c0-21.5-5.8-41.4-15.2-59.2L444,262.8z"/> </g>
</svg>